# Low Poly Island (Half Sphere / Floating Island)
# Vertices: 114, Faces: 224
v 0.0000 1.0000 0.0000
v 12.5000 1.0000 0.0000
v 11.5485 1.0000 4.7835
v 8.8388 1.0000 8.8388
v 4.7835 1.0000 11.5485
v 0.0000 1.0000 12.5000
v -4.7835 1.0000 11.5485
v -8.8388 1.0000 8.8388
v -11.5485 1.0000 4.7835
v -12.5000 1.0000 0.0000
v -11.5485 1.0000 -4.7835
v -8.8388 1.0000 -8.8388
v -4.7835 1.0000 -11.5485
v -0.0000 1.0000 -12.5000
v 4.7835 1.0000 -11.5485
v 8.8388 1.0000 -8.8388
v 11.5485 1.0000 -4.7835
v 25.0000 1.0000 0.0000
v 23.0970 1.0000 9.5671
v 17.6777 1.0000 17.6777
v 9.5671 1.0000 23.0970
v 0.0000 1.0000 25.0000
v -9.5671 1.0000 23.0970
v -17.6777 1.0000 17.6777
v -23.0970 1.0000 9.5671
v -25.0000 1.0000 0.0000
v -23.0970 1.0000 -9.5671
v -17.6777 1.0000 -17.6777
v -9.5671 1.0000 -23.0970
v -0.0000 1.0000 -25.0000
v 9.5671 1.0000 -23.0970
v 17.6777 1.0000 -17.6777
v 23.0970 1.0000 -9.5671
v 24.1481 5.6587 0.0000
v 22.3100 5.6587 9.2411
v 17.0753 5.6587 17.0753
v 9.2411 5.6587 22.3100
v 0.0000 5.6587 24.1481
v -9.2411 5.6587 22.3100
v -17.0753 5.6587 17.0753
v -22.3100 5.6587 9.2411
v -24.1481 5.6587 0.0000
v -22.3100 5.6587 -9.2411
v -17.0753 5.6587 -17.0753
v -9.2411 5.6587 -22.3100
v -0.0000 5.6587 -24.1481
v 9.2411 5.6587 -22.3100
v 17.0753 5.6587 -17.0753
v 22.3100 5.6587 -9.2411
v 21.6506 10.0000 0.0000
v 20.0026 10.0000 8.2853
v 15.3093 10.0000 15.3093
v 8.2853 10.0000 20.0026
v 0.0000 10.0000 21.6506
v -8.2853 10.0000 20.0026
v -15.3093 10.0000 15.3093
v -20.0026 10.0000 8.2853
v -21.6506 10.0000 0.0000
v -20.0026 10.0000 -8.2853
v -15.3093 10.0000 -15.3093
v -8.2853 10.0000 -20.0026
v -0.0000 10.0000 -21.6506
v 8.2853 10.0000 -20.0026
v 15.3093 10.0000 -15.3093
v 20.0026 10.0000 -8.2853
v 17.6777 13.7279 0.0000
v 16.3320 13.7279 6.7650
v 12.5000 13.7279 12.5000
v 6.7650 13.7279 16.3320
v 0.0000 13.7279 17.6777
v -6.7650 13.7279 16.3320
v -12.5000 13.7279 12.5000
v -16.3320 13.7279 6.7650
v -17.6777 13.7279 0.0000
v -16.3320 13.7279 -6.7650
v -12.5000 13.7279 -12.5000
v -6.7650 13.7279 -16.3320
v -0.0000 13.7279 -17.6777
v 6.7650 13.7279 -16.3320
v 12.5000 13.7279 -12.5000
v 16.3320 13.7279 -6.7650
v 12.5000 16.5885 0.0000
v 11.5485 16.5885 4.7835
v 8.8388 16.5885 8.8388
v 4.7835 16.5885 11.5485
v 0.0000 16.5885 12.5000
v -4.7835 16.5885 11.5485
v -8.8388 16.5885 8.8388
v -11.5485 16.5885 4.7835
v -12.5000 16.5885 0.0000
v -11.5485 16.5885 -4.7835
v -8.8388 16.5885 -8.8388
v -4.7835 16.5885 -11.5485
v -0.0000 16.5885 -12.5000
v 4.7835 16.5885 -11.5485
v 8.8388 16.5885 -8.8388
v 11.5485 16.5885 -4.7835
v 6.4705 18.3867 0.0000
v 5.9779 18.3867 2.4761
v 4.5753 18.3867 4.5753
v 2.4761 18.3867 5.9779
v 0.0000 18.3867 6.4705
v -2.4761 18.3867 5.9779
v -4.5753 18.3867 4.5753
v -5.9779 18.3867 2.4761
v -6.4705 18.3867 0.0000
v -5.9779 18.3867 -2.4761
v -4.5753 18.3867 -4.5753
v -2.4761 18.3867 -5.9779
v -0.0000 18.3867 -6.4705
v 2.4761 18.3867 -5.9779
v 4.5753 18.3867 -4.5753
v 5.9779 18.3867 -2.4761
v 0.0000 19.0000 0.0000
f 1 2 3
f 1 3 4
f 1 4 5
f 1 5 6
f 1 6 7
f 1 7 8
f 1 8 9
f 1 9 10
f 1 10 11
f 1 11 12
f 1 12 13
f 1 13 14
f 1 14 15
f 1 15 16
f 1 16 17
f 1 17 2
f 2 18 19
f 2 19 3
f 3 19 20
f 3 20 4
f 4 20 21
f 4 21 5
f 5 21 22
f 5 22 6
f 6 22 23
f 6 23 7
f 7 23 24
f 7 24 8
f 8 24 25
f 8 25 9
f 9 25 26
f 9 26 10
f 10 26 27
f 10 27 11
f 11 27 28
f 11 28 12
f 12 28 29
f 12 29 13
f 13 29 30
f 13 30 14
f 14 30 31
f 14 31 15
f 15 31 32
f 15 32 16
f 16 32 33
f 16 33 17
f 17 33 18
f 17 18 2
f 18 19 35
f 18 35 34
f 19 20 36
f 19 36 35
f 20 21 37
f 20 37 36
f 21 22 38
f 21 38 37
f 22 23 39
f 22 39 38
f 23 24 40
f 23 40 39
f 24 25 41
f 24 41 40
f 25 26 42
f 25 42 41
f 26 27 43
f 26 43 42
f 27 28 44
f 27 44 43
f 28 29 45
f 28 45 44
f 29 30 46
f 29 46 45
f 30 31 47
f 30 47 46
f 31 32 48
f 31 48 47
f 32 33 49
f 32 49 48
f 33 18 34
f 33 34 49
f 34 35 51
f 34 51 50
f 35 36 52
f 35 52 51
f 36 37 53
f 36 53 52
f 37 38 54
f 37 54 53
f 38 39 55
f 38 55 54
f 39 40 56
f 39 56 55
f 40 41 57
f 40 57 56
f 41 42 58
f 41 58 57
f 42 43 59
f 42 59 58
f 43 44 60
f 43 60 59
f 44 45 61
f 44 61 60
f 45 46 62
f 45 62 61
f 46 47 63
f 46 63 62
f 47 48 64
f 47 64 63
f 48 49 65
f 48 65 64
f 49 34 50
f 49 50 65
f 50 51 67
f 50 67 66
f 51 52 68
f 51 68 67
f 52 53 69
f 52 69 68
f 53 54 70
f 53 70 69
f 54 55 71
f 54 71 70
f 55 56 72
f 55 72 71
f 56 57 73
f 56 73 72
f 57 58 74
f 57 74 73
f 58 59 75
f 58 75 74
f 59 60 76
f 59 76 75
f 60 61 77
f 60 77 76
f 61 62 78
f 61 78 77
f 62 63 79
f 62 79 78
f 63 64 80
f 63 80 79
f 64 65 81
f 64 81 80
f 65 50 66
f 65 66 81
f 66 67 83
f 66 83 82
f 67 68 84
f 67 84 83
f 68 69 85
f 68 85 84
f 69 70 86
f 69 86 85
f 70 71 87
f 70 87 86
f 71 72 88
f 71 88 87
f 72 73 89
f 72 89 88
f 73 74 90
f 73 90 89
f 74 75 91
f 74 91 90
f 75 76 92
f 75 92 91
f 76 77 93
f 76 93 92
f 77 78 94
f 77 94 93
f 78 79 95
f 78 95 94
f 79 80 96
f 79 96 95
f 80 81 97
f 80 97 96
f 81 66 82
f 81 82 97
f 82 83 99
f 82 99 98
f 83 84 100
f 83 100 99
f 84 85 101
f 84 101 100
f 85 86 102
f 85 102 101
f 86 87 103
f 86 103 102
f 87 88 104
f 87 104 103
f 88 89 105
f 88 105 104
f 89 90 106
f 89 106 105
f 90 91 107
f 90 107 106
f 91 92 108
f 91 108 107
f 92 93 109
f 92 109 108
f 93 94 110
f 93 110 109
f 94 95 111
f 94 111 110
f 95 96 112
f 95 112 111
f 96 97 113
f 96 113 112
f 97 82 98
f 97 98 113
f 98 99 114
f 99 100 114
f 100 101 114
f 101 102 114
f 102 103 114
f 103 104 114
f 104 105 114
f 105 106 114
f 106 107 114
f 107 108 114
f 108 109 114
f 109 110 114
f 110 111 114
f 111 112 114
f 112 113 114
f 113 98 114
