v -1 0 -0.8
v 1 0 -0.8
v 1 0 0.8
v -1 0 0.8
v -1 1 -0.8
v 1 1 -0.8
v 1 1 0.8
v -1 1 0.8
f 1 2 3
f 1 3 4
f 5 7 6
f 5 8 7
f 4 3 7
f 4 7 8
f 2 1 5
f 2 5 6
f 1 4 8
f 1 8 5
f 3 2 6
f 3 6 7
v -0.85 -0.3 -0.7
v 0.85 -0.3 -0.7
v 0.85 -0.3 0.7
v -0.85 -0.3 0.7
v -0.85 0 -0.7
v 0.85 0 -0.7
v 0.85 0 0.7
v -0.85 0 0.7
f 9 10 11
f 9 11 12
f 13 15 14
f 13 16 15
f 12 11 15
f 12 15 16
f 10 9 13
f 10 13 14
f 9 12 16
f 9 16 13
f 11 10 14
f 11 14 15
v -0.7 -1.3 -0.6
v 0.7 -1.3 -0.6
v 0.7 -1.3 0.4
v -0.7 -1.3 0.4
v -0.7 -0.3 -0.6
v 0.7 -0.3 -0.6
v 0.7 -0.3 0.4
v -0.7 -0.3 0.4
f 17 18 19
f 17 19 20
f 21 23 22
f 21 24 23
f 20 19 23
f 20 23 24
f 18 17 21
f 18 21 22
f 17 20 24
f 17 24 21
f 19 18 22
f 19 22 23
v -0.65 -0.08 0.45
v 0.65 -0.08 0.45
v 0.65 -0.08 0.75
v -0.65 -0.08 0.75
v -0.65 0 0.45
v 0.65 0 0.45
v 0.65 0 0.75
v -0.65 0 0.75
f 25 26 27
f 25 27 28
f 29 31 30
f 29 32 31
f 28 27 31
f 28 31 32
f 26 25 29
f 26 29 30
f 25 28 32
f 25 32 29
f 27 26 30
f 27 30 31
